# xmcd
#
# Track frame offsets:
#	150
#	19095
#	35380
#	58730
#	78305
#	117225
#	143045
#	163190
#	181585
#	206252
#	222145
#	259742
#
# Disc length: 3860 seconds
#
# Revision: 1
# Processed by: cddbd v1.5.1PL2 Copyright (c) Steve Scherf et al.
# Submitted via: audiograbber 1.83.01
#
DISCID=9c0f120c
DTITLE=Baby Jason And The Spankers - Cryin Out Loud
DYEAR=1996
DGENRE=Blues
TTITLE0=TB Cow
TTITLE1=Be Straight With Me
TTITLE2=MMMM
TTITLE3=On The Run Again
TTITLE4=Ca Vrisi Vriso
TTITLE5=Last Time
TTITLE6=Nicole
TTITLE7=Jealousy
TTITLE8=If You Only Knew
TTITLE9=Funky Thang
TTITLE10=Think I'm Gonna Scream
TTITLE11=Wish You Well
EXTD=
EXTT0=
EXTT1=
EXTT2=
EXTT3=
EXTT4=
EXTT5=
EXTT6=
EXTT7=
EXTT8=
EXTT9=
EXTT10=
EXTT11=
PLAYORDER=
